<svg width="597" height="169" viewBox="0 0 597 169" fill="none" xmlns="http://www.w3.org/2000/svg">
<mask id="mask0_2619_3011" style="mask-type:alpha" maskUnits="userSpaceOnUse" x="0" y="0" width="147" height="169">
<path d="M57.2131 9.05089L41.5526 18.1432L41.4273 29.9048C41.3855 36.3694 41.469 41.5412 41.6778 41.4161C46.7727 38.288 73.3747 23.2315 73.7088 23.3149C73.9594 23.3983 86.0702 30.2801 100.561 38.6634L126.955 53.8867V84.5419V115.197L100.561 130.42C86.0284 138.804 73.8341 145.644 73.5 145.644C73.1659 145.644 60.9716 138.804 46.4386 130.42L20.0455 115.197V72.9888C20.0455 49.7576 19.9619 30.7389 19.8784 30.7389C19.7531 30.7389 15.2429 33.2831 9.85568 36.4112L0 42.0834V84.5419V127L36.4159 148.021C56.4614 159.532 73.1659 169 73.5 169C73.8341 169 90.5386 159.532 110.584 148.021L147 127V84.5419V42.0834L110.584 21.0627C90.5386 9.55138 73.8759 0.0420227 73.5418 0.000320435C73.1659 -0.0413818 65.8159 4.04596 57.2131 9.05089Z" fill="white"/>
</mask>
<g mask="url(#mask0_2619_3011)">
<path d="M57.2131 9.05089L41.5526 18.1432L41.4273 29.9048C41.3855 36.3694 41.469 41.5412 41.6778 41.4161C46.7727 38.288 73.3747 23.2315 73.7088 23.3149C73.9594 23.3983 86.0702 30.2801 100.561 38.6634L126.955 53.8867V84.5419V115.197L100.561 130.42C86.0284 138.804 73.8341 145.644 73.5 145.644C73.1659 145.644 60.9716 138.804 46.4386 130.42L20.0455 115.197V72.9888C20.0455 49.7576 19.9619 30.7389 19.8784 30.7389C19.7531 30.7389 15.2429 33.2831 9.85568 36.4112L0 42.0834V84.5419V127L36.4159 148.021C56.4614 159.532 73.1659 169 73.5 169C73.8341 169 90.5386 159.532 110.584 148.021L147 127V84.5419V42.0834L110.584 21.0627C90.5386 9.55138 73.8759 0.0420227 73.5418 0.000320435C73.1659 -0.0413818 65.8159 4.04596 57.2131 9.05089Z" fill="url(#paint0_linear_2619_3011)"/>
<path d="M0 84.5418V42.0833L57.2131 9.05081C65.8159 4.04588 73.1659 -0.041481 73.5418 0.000228882L73.7088 23.3148L73 84.9999L0 127V84.5418Z" fill="url(#paint1_linear_2619_3011)"/>
<path d="M0 127L36.4159 148.021C56.4614 159.532 73.1659 169 73.5 169C73.8341 169 90.5386 159.532 110.584 148.021L147 127L126.582 115.412L73 85L20.28 115.332L0 127Z" fill="url(#paint2_linear_2619_3011)"/>
</g>
<path d="M41 66.3887L56.9528 57.1619C66.4327 51.6926 73.198 48.0186 73.5739 48.1438L73.1562 85.0928L41 103.797V85.0928V66.3887Z" fill="url(#paint3_linear_2619_3011)"/>
<path d="M56.744 112.898L41 103.797L73.1562 85.0928L105.312 103.797L89.5685 112.898C80.8821 117.908 73.5321 122 73.1562 122C72.7804 122 65.4304 117.908 56.744 112.898Z" fill="url(#paint4_linear_2619_3011)"/>
<path d="M105.312 85.0928V103.797L73.1562 85.0928L73.5739 48.1438C73.908 48.3108 81.2162 52.4441 89.7773 57.3706L105.312 66.3887V85.0928Z" fill="url(#paint5_linear_2619_3011)"/>
<path d="M166 86.2087V118.417H173.112H180.223V116.094V113.81L181.645 115.278C184.978 118.703 189.57 120.252 195.462 119.967C206.312 119.355 214.846 112.22 217.447 101.457C218.382 97.6652 218.382 90.1635 217.447 86.6164C214.603 75.9345 205.337 68.6774 194.446 68.6774C189.448 68.6774 185.1 70.1451 182.052 72.7952L180.63 74.0591V64.0296V54H173.315H166V86.2087ZM197.21 83.5179C201.314 85.5972 203.59 89.5111 203.549 94.3628C203.549 99.4184 201.314 103.128 196.966 105.249C195.056 106.186 194.121 106.39 191.602 106.39C188.96 106.39 188.229 106.186 186.319 105.126C177.175 99.9484 178.679 85.5156 188.676 82.6617C191.277 81.9278 194.812 82.2948 197.21 83.5179Z" fill="white"/>
<path d="M218.963 86.1852V118.37H226.296H233.63V86.1852V54H226.296H218.963V86.1852Z" fill="white"/>
<path d="M337.111 86.1852V118.37H344.438H351.765L351.846 107.085L351.968 95.8L358.562 107.004L365.115 118.167L373.297 118.289C377.815 118.33 381.479 118.289 381.479 118.167C381.479 118.044 377.652 112.056 372.931 104.885C368.25 97.7148 364.383 91.6444 364.383 91.4815C364.383 91.2778 368.413 86.4296 373.338 80.6852L382.333 70.2963H373.623H364.953L358.359 78.8926L351.765 87.4889V70.7444V54H344.438H337.111V86.1852Z" fill="white"/>
<path d="M559.963 62.1481V70.2963H556.296H552.63V75.7963V81.2963H556.296H559.963V99.8333V118.37H567.296H574.63V99.8333V81.2963H578.093H581.556V75.7963V70.2963H578.093H574.63V62.1481V54H567.296H559.963V62.1481Z" fill="white"/>
<path d="M254.539 69.2541C246.16 71.0517 239.408 77.1801 236.317 85.8415C235.381 88.4972 235.259 89.4368 235.259 94.1353C235.259 98.8337 235.381 99.7734 236.317 102.429C240.222 113.378 249.252 119.67 261.047 119.67C272.64 119.67 282.036 113.215 285.534 102.919L286.388 100.427L287.527 103.45C291.025 113.174 299.526 119.384 310.102 119.956C319.051 120.446 327.064 116.81 332.229 109.946C334.141 107.373 336.704 102.102 336.704 100.713C336.704 100.141 335.768 100.059 329.464 100.059H322.264L320.84 101.98C316.895 107.332 309.004 108.026 304.123 103.45C297.696 97.4037 300.055 85.0244 308.068 82.6548C313.031 81.2248 318.156 82.9408 320.84 86.9038L322.223 89.0283H329.464C334.182 89.0283 336.704 88.8649 336.704 88.6197C336.704 87.5166 334.873 82.8591 333.653 80.8571C329.26 73.6256 321.572 69.1724 312.665 68.7229C305.343 68.3144 299.12 70.5615 293.995 75.4233C290.741 78.4875 289.032 80.9797 287.486 84.9427L286.388 87.8435L285.534 85.3104C283.5 79.3455 279.067 74.1976 273.535 71.4603C271.704 70.5615 268.939 69.5401 267.352 69.2132C263.813 68.4778 258.038 68.4778 254.539 69.2541ZM265.888 83.2676C270.118 85.4738 272.437 89.2734 272.437 94.1353C272.437 99.038 270.159 102.756 265.766 105.044C263.407 106.31 258.688 106.31 256.329 105.044C253.563 103.614 252.058 102.061 250.838 99.4465C247.543 92.501 251.163 84.3299 258.404 82.4505C260.275 81.9602 264.139 82.3688 265.888 83.2676Z" fill="white"/>
<path d="M397 69.1556C385.756 72.2585 378.667 81.9346 378.667 94.2646C378.667 101.899 381.233 108.391 386.122 113.209C389.544 116.597 392.07 118.067 396.43 119.17C403.844 121.088 411.3 119.619 415.333 115.413L416.963 113.78V116.067V118.353H424.296H431.63V94.2646V70.1762H424.296H416.963V72.4626V74.749L414.722 72.7076C411.585 69.8496 408.937 68.8698 403.518 68.7064C400.585 68.584 398.548 68.7473 397 69.1556ZM410.73 83.4453C414.518 85.3233 416.596 88.6712 416.881 93.4481C417.085 97.0001 416.148 100.021 414.111 102.512C411.015 106.309 404.496 107.493 399.73 105.125C393.13 101.899 391.256 92.4682 395.981 86.3032C397.122 84.7518 400.015 82.9145 402.011 82.3838C404.252 81.8122 408.367 82.3021 410.73 83.4453Z" fill="white"/>
<path d="M446.101 69.175C440.271 70.6835 435.421 74.5159 433.668 79.0415C432.526 82.0177 432.363 86.4209 433.342 88.7041C434.198 90.6611 437.051 93.7189 439.13 94.942C440.068 95.472 443.329 96.8582 446.468 97.9998C449.566 99.1414 452.99 100.528 454.05 101.058C458.697 103.422 457.229 108.192 451.889 108.192C450.789 108.192 449.525 107.989 449.036 107.744C447.854 107.132 446.753 105.705 446.712 104.808C446.712 104.156 446.101 104.115 439.375 104.115C433.586 104.115 432.037 104.238 432.037 104.645C432.037 105.583 433.301 109.538 434.116 111.087C435.217 113.33 438.356 116.224 441.046 117.61C447.813 120.994 457.229 120.75 463.629 116.958C465.627 115.817 469.01 112.514 469.336 111.413C469.662 110.435 470.233 110.435 470.559 111.413C471.008 112.799 474.88 116.347 477.326 117.57C484.052 120.994 493.51 120.75 499.91 116.999C503.538 114.879 506.595 110.802 507.247 107.214L507.532 105.705L509.122 108.111C517.397 120.791 534.396 123.848 545.769 114.756C547.074 113.696 548.908 111.903 549.846 110.802C551.395 108.967 554.33 104.197 554.33 103.585C554.33 103.422 550.987 103.3 546.951 103.3H539.532L538.146 104.727C537.372 105.502 536.19 106.439 535.456 106.806C533.825 107.662 529.708 107.989 527.629 107.418C523.92 106.439 520.699 103.341 519.884 99.9568L519.599 98.8152L537.657 98.7337L555.756 98.6113L555.879 94.9828C556.001 90.7019 555.023 86.2986 553.025 82.1808C551.15 78.3076 546.136 73.3336 542.223 71.3766C527.996 64.3641 511.201 71.4989 506.473 86.584C505.943 88.2556 505.372 90.8649 505.209 92.4142L504.924 95.1458L503.456 93.8412C501.499 92.1696 498.075 90.6203 492.572 89.0303C487.354 87.5217 485.438 86.584 484.256 85.1163C483.155 83.6893 483.155 82.7108 484.419 81.4877C485.194 80.6723 485.805 80.4684 487.558 80.4684C490.126 80.4684 491.39 81.2023 491.757 82.9147L492.042 84.1378H499.176H506.35L506.065 82.507C504.801 74.4752 498.605 69.3381 489.433 68.7673C481.036 68.1965 473.454 71.8659 470.519 77.8999L469.377 80.183L468.521 78.1445C466.85 74.3936 463.67 71.5805 459.145 69.8681C456.129 68.7673 449.24 68.3596 446.101 69.175ZM454.335 81.08C454.824 81.4062 455.313 82.2623 455.477 82.9147L455.762 84.1378H462.203H468.643L468.929 85.8502C469.377 88.5002 470.111 90.0088 472.027 92.0881C474.35 94.6158 476.022 95.5128 482.748 97.9998C485.846 99.1414 489.27 100.528 490.33 101.058C494.977 103.422 493.51 108.192 488.169 108.192C487.069 108.192 485.805 107.989 485.316 107.744C484.134 107.132 483.033 105.705 482.992 104.808C482.992 104.197 482.462 104.115 477.326 104.115H471.66L471.375 101.955C471.252 100.813 470.641 98.8967 470.111 97.7144C468.195 93.6781 464.689 91.4765 456.292 89.0303C451.074 87.5217 449.158 86.584 447.976 85.1163C446.875 83.6893 446.875 82.7108 448.139 81.4877C448.913 80.6723 449.525 80.4684 451.278 80.4684C452.542 80.4684 453.805 80.7131 454.335 81.08ZM535.823 82.0177C536.72 82.4662 538.024 83.4447 538.717 84.1378C539.981 85.4425 541.571 88.4595 541.204 88.8264C541.081 88.9487 536.19 88.9895 530.32 88.9487L519.639 88.8264L520.74 86.6656C522.004 84.1378 524.083 82.3031 526.61 81.4877C529.137 80.6723 533.662 80.9169 535.823 82.0177Z" fill="white"/>
<path d="M581.556 111.037V118.37H589.093H596.63V111.037V103.704H589.093H581.556V111.037Z" fill="white"/>
<defs>
<linearGradient id="paint0_linear_2619_3011" x1="147" y1="125.5" x2="73.5" y2="1.92883e-06" gradientUnits="userSpaceOnUse">
<stop stop-color="#6168F7"/>
<stop offset="1" stop-color="#29CDC1"/>
</linearGradient>
<linearGradient id="paint1_linear_2619_3011" x1="37" y1="107" x2="22" y2="15" gradientUnits="userSpaceOnUse">
<stop stop-color="#35A8C5"/>
<stop offset="1" stop-color="#21CBB2"/>
</linearGradient>
<linearGradient id="paint2_linear_2619_3011" x1="0" y1="127" x2="143" y2="127" gradientUnits="userSpaceOnUse">
<stop stop-color="#2E8DA7"/>
<stop offset="1" stop-color="#514EC9"/>
</linearGradient>
<linearGradient id="paint3_linear_2619_3011" x1="63.5" y1="89.5" x2="48.5" y2="61.5" gradientUnits="userSpaceOnUse">
<stop stop-color="#548CD3"/>
<stop offset="1" stop-color="#39AEC2"/>
</linearGradient>
<linearGradient id="paint4_linear_2619_3011" x1="87.5" y1="110" x2="60" y2="92" gradientUnits="userSpaceOnUse">
<stop stop-color="#5F56C2"/>
<stop offset="1" stop-color="#4577B0"/>
</linearGradient>
<linearGradient id="paint5_linear_2619_3011" x1="105" y1="101.5" x2="74.5" y2="50.5" gradientUnits="userSpaceOnUse">
<stop stop-color="#7C66F5"/>
<stop offset="1" stop-color="#43AFD0"/>
</linearGradient>
</defs>
</svg>
