<?xml version="1.0" standalone="no"?>
<!DOCTYPE svg PUBLIC "-//W3C//DTD SVG 20010904//EN"
 "http://www.w3.org/TR/2001/REC-SVG-20010904/DTD/svg10.dtd">
<svg version="1.0" xmlns="http://www.w3.org/2000/svg"
 width="512.000000pt" height="512.000000pt" viewBox="0 0 512.000000 512.000000"
 preserveAspectRatio="xMidYMid meet">
<metadata>
Created by potrace 1.14, written by Peter Selinger 2001-2017
</metadata>
<g transform="translate(0.000000,512.000000) scale(0.100000,-0.100000)"
fill="#000000" stroke="none">
<path d="M0 2560 l0 -2560 2560 0 2560 0 0 2560 0 2560 -2560 0 -2560 0 0
-2560z m2120 242 c223 -493 419 -926 435 -961 l31 -64 405 959 404 959 233 2
c196 2 232 0 232 -13 0 -10 -12 -14 -42 -14 -55 0 -105 -30 -124 -75 -12 -29
-14 -184 -13 -1022 0 -738 3 -997 12 -1023 15 -43 63 -70 125 -70 29 0 42 -4
42 -14 0 -11 -57 -13 -320 -13 -245 0 -320 3 -320 12 0 8 21 14 56 17 71 6
100 33 114 107 6 34 10 406 10 1030 -1 826 -3 972 -14 951 -22 -39 -768 -1803
-773 -1825 -3 -12 14 -63 37 -115 23 -52 51 -114 61 -138 l19 -43 -156 3 -155
3 -435 960 c-239 528 -444 978 -454 1000 -18 39 -19 26 -17 -825 l2 -865 22
-54 c50 -122 114 -177 218 -188 33 -4 55 -11 55 -18 0 -9 -77 -12 -320 -12
-259 0 -320 3 -320 14 0 9 14 13 44 13 65 0 143 44 183 104 71 104 67 53 71
1040 l3 890 -35 50 c-44 64 -91 95 -152 104 -26 4 -49 13 -52 20 -3 9 49 12
240 12 l243 -1 405 -897z"/>
</g>
</svg>
