<?xml version="1.0" standalone="no"?>
<!DOCTYPE svg PUBLIC "-//W3C//DTD SVG 20010904//EN"
 "http://www.w3.org/TR/2001/REC-SVG-20010904/DTD/svg10.dtd">
<svg version="1.0" xmlns="http://www.w3.org/2000/svg"
 width="512.000000pt" height="512.000000pt" viewBox="0 0 512.000000 512.000000"
 preserveAspectRatio="xMidYMid meet">
<metadata>
Created by potrace 1.14, written by Peter Selinger 2001-2017
</metadata>
<g transform="translate(0.000000,512.000000) scale(0.100000,-0.100000)"
fill="#000000" stroke="none">
<path d="M0 2560 l0 -2560 2560 0 2560 0 0 2560 0 2560 -2560 0 -2560 0 0
-2560z m2683 2113 c63 -38 170 -99 237 -138 67 -38 160 -93 208 -121 48 -28
161 -93 252 -146 91 -52 253 -146 360 -208 107 -62 265 -154 350 -203 85 -49
201 -117 258 -150 l102 -60 0 -1092 0 -1092 -27 -14 c-16 -8 -30 -17 -33 -20
-3 -4 -55 -34 -116 -68 -62 -34 -117 -68 -124 -76 -7 -8 -17 -15 -22 -15 -11
0 -152 -79 -225 -127 -28 -18 -54 -33 -56 -33 -8 0 -171 -93 -177 -100 -3 -4
-45 -28 -95 -55 -49 -26 -103 -58 -120 -70 -16 -12 -66 -41 -110 -65 -44 -23
-102 -57 -130 -75 -27 -18 -88 -53 -135 -79 -47 -26 -101 -56 -120 -68 -44
-27 -210 -123 -317 -183 l-83 -46 -77 44 c-123 70 -219 125 -343 197 -133 78
-225 131 -365 210 -55 31 -172 99 -260 150 -88 52 -189 110 -225 130 -36 20
-137 78 -225 129 -88 51 -213 123 -277 160 l-118 66 0 1096 0 1096 83 49 c45
27 123 71 172 100 50 28 126 72 170 98 44 25 83 46 87 46 5 0 8 -492 8 -1092
l0 -1093 163 -94 c89 -52 216 -125 282 -164 66 -38 161 -93 210 -122 50 -29
144 -84 210 -122 66 -39 152 -89 190 -111 39 -22 125 -72 192 -111 l123 -71
102 56 c57 32 126 71 153 89 28 18 88 54 135 79 47 26 117 65 155 88 39 22
129 74 200 116 72 41 171 98 220 127 227 132 267 155 275 155 5 0 10 4 12 9 2
5 31 23 66 40 l62 31 0 798 0 797 -38 21 c-20 11 -109 62 -197 114 -88 51
-207 119 -264 152 -58 32 -110 63 -115 67 -6 5 -63 38 -126 73 -63 36 -171 98
-240 138 -69 40 -187 108 -263 151 l-138 79 -97 -56 c-126 -73 -259 -151 -402
-234 -63 -37 -162 -95 -220 -128 l-105 -61 -3 292 c-1 160 0 297 2 303 2 6
105 69 228 140 122 71 235 136 249 144 14 8 57 33 95 54 38 22 110 63 159 93
50 29 93 53 96 53 4 0 59 -30 122 -67z m-22 -1218 c50 -30 92 -55 94 -55 4 0
377 -216 560 -325 l70 -41 3 -477 2 -477 -40 -25 c-22 -14 -108 -65 -192 -113
-84 -49 -209 -121 -278 -162 -69 -40 -168 -97 -220 -127 l-95 -55 -70 37 c-38
21 -122 68 -185 105 -63 37 -144 84 -180 104 -36 20 -72 41 -80 46 -8 6 -58
34 -110 64 -52 29 -121 68 -152 87 l-58 34 3 480 2 480 245 142 c135 79 281
163 325 188 45 24 119 67 165 95 47 27 89 50 93 50 4 0 48 -25 98 -55z"/>
</g>
</svg>
