<?xml version="1.0" encoding="UTF-8"?>
<svg xmlns="http://www.w3.org/2000/svg">
  <symbol id="instagram" viewBox="0 0 16 16">
    <path
      d="M8.00279 3.89258C5.73413 3.89258 3.89746 5.73125 3.89746 7.99791C3.89746 10.2666 5.73613 12.1032 8.00279 12.1032C10.2715 12.1032 12.1081 10.2646 12.1081 7.99791C12.1081 5.72925 10.2695 3.89258 8.00279 3.89258ZM8.00279 10.6626C6.53013 10.6626 5.33813 9.46991 5.33813 7.99791C5.33813 6.52591 6.53079 5.33325 8.00279 5.33325C9.47479 5.33325 10.6675 6.52591 10.6675 7.99791C10.6681 9.46991 9.47546 10.6626 8.00279 10.6626Z" />
    <path
      d="M11.2988 0.0512343C9.82681 -0.0174323 6.18082 -0.014099 4.70748 0.0512343C3.41282 0.111901 2.27082 0.424568 1.35015 1.34523C-0.188515 2.8839 0.0081515 4.95723 0.0081515 7.9979C0.0081515 11.1099 -0.165182 13.1352 1.35015 14.6506C2.89482 16.1946 4.99815 15.9926 8.00281 15.9926C11.0855 15.9926 12.1495 15.9946 13.2395 15.5726C14.7215 14.9972 15.8401 13.6726 15.9495 11.2932C16.0188 9.82057 16.0148 6.17523 15.9495 4.7019C15.8175 1.89323 14.3101 0.189901 11.2988 0.0512343ZM13.6288 13.6326C12.6201 14.6412 11.2208 14.5512 7.98348 14.5512C4.65015 14.5512 3.31348 14.6006 2.33815 13.6226C1.21482 12.5046 1.41815 10.7092 1.41815 7.98723C1.41815 4.3039 1.04015 1.65123 4.73682 1.4619C5.58615 1.4319 5.83615 1.4219 7.97415 1.4219L8.00415 1.4419C11.5568 1.4419 14.3441 1.0699 14.5115 4.7659C14.5495 5.60923 14.5581 5.86257 14.5581 7.99723C14.5575 11.2919 14.6201 12.6366 13.6288 13.6326Z" />
    <path
      d="M12.2706 4.68916C12.8004 4.68916 13.2299 4.25966 13.2299 3.72984C13.2299 3.20001 12.8004 2.77051 12.2706 2.77051C11.7408 2.77051 11.3113 3.20001 11.3113 3.72984C11.3113 4.25966 11.7408 4.68916 12.2706 4.68916Z" />
  </symbol>
  <symbol id="facebook" viewBox="0 0 16 16">
    <path
      d="M10.6648 2.65667H12.1254V0.112667C11.8734 0.078 11.0068 0 9.99742 0C7.89142 0 6.44876 1.32467 6.44876 3.75933V6H4.12476V8.844H6.44876V16H9.29809V8.84467H11.5281L11.8821 6.00067H9.29742V4.04133C9.29809 3.21933 9.51942 2.65667 10.6648 2.65667Z" />
  </symbol>
  <symbol id="twitter" viewBox="0 0 16 16">
    <path
      d="M14.356 4.742C15.0067 4.28 15.554 3.70333 16 3.03933V3.03867C15.4047 3.29933 14.7713 3.47267 14.11 3.55667C14.79 3.15067 15.3093 2.51267 15.5533 1.744C14.9193 2.122 14.2193 2.38867 13.4733 2.538C12.8713 1.89667 12.0133 1.5 11.0773 1.5C9.26133 1.5 7.79933 2.974 7.79933 4.78067C7.79933 5.04067 7.82133 5.29067 7.87533 5.52867C5.14866 5.39533 2.73533 4.08867 1.114 2.09733C0.831333 2.58867 0.664666 3.15067 0.664666 3.75533C0.664666 4.89133 1.24933 5.898 2.122 6.48133C1.59467 6.47133 1.078 6.318 0.64 6.07733V6.11333C0.64 7.70733 1.77667 9.03133 3.268 9.33667C3.00066 9.41 2.71 9.44467 2.408 9.44467C2.198 9.44467 1.986 9.43267 1.78733 9.38867C2.212 10.6873 3.41866 11.6427 4.852 11.674C3.736 12.5467 2.31867 13.0727 0.784666 13.0727C0.516 13.0727 0.258 13.0607 0 13.028C1.45333 13.9647 3.17466 14.5 5.032 14.5C10.8207 14.5 14.5933 9.67067 14.356 4.742Z" />
  </symbol>
  <symbol id="linkedin" viewBox="0 0 16 16">
    <path
      d="M15.9959 15.9994V15.9988H15.9999V10.1308C15.9999 7.26015 15.3819 5.04883 12.0259 5.04883C10.4125 5.04883 9.32985 5.93416 8.88785 6.77349H8.84119V5.31683H5.65918V15.9988H8.97252V10.7095C8.97252 9.31681 9.23652 7.97015 10.9612 7.97015C12.6605 7.97015 12.6859 9.55947 12.6859 10.7988V15.9994H15.9959Z" />
    <path d="M0.263916 5.31836H3.58125V16.0004H0.263916V5.31836Z" />
    <path
      d="M1.92133 0C0.860667 0 0 0.860667 0 1.92133C0 2.982 0.860667 3.86067 1.92133 3.86067C2.982 3.86067 3.84267 2.982 3.84267 1.92133C3.842 0.860667 2.98133 0 1.92133 0V0Z" />
  </symbol>
  <symbol id="medium" viewBox="0 0 24 24">
    <path
      d="M13.281 11.856c0 3.143-2.525 5.69-5.64 5.69-3.115 0-5.641-2.548-5.641-5.69 0-3.141 2.525-5.69 5.64-5.69 3.116 0 5.641 2.548 5.641 5.69ZM19.469 11.857c0 2.957-1.263 5.356-2.82 5.356-1.558 0-2.82-2.399-2.82-5.357 0-2.957 1.262-5.356 2.82-5.356 1.557 0 2.82 2.398 2.82 5.357M22 11.857c0 2.65-.444 4.798-.992 4.798s-.991-2.148-.991-4.798.444-4.799.991-4.799c.548 0 .992 2.148.992 4.799Z" />
  </symbol>
  <symbol id="telegram" viewBox="0 0 24 24">
    <path fill-rule="evenodd"
      d="M4.237 10.888C9.07 8.63 12.291 7.14 13.903 6.422c4.603-2.053 5.56-2.41 6.183-2.422.137-.002.444.034.642.207.168.146.214.343.236.481.022.139.05.454.028.7-.25 2.811-1.329 9.633-1.878 12.781-.232 1.333-.69 1.78-1.133 1.823-.962.095-1.693-.682-2.625-1.338-1.459-1.025-2.283-1.664-3.7-2.665-1.636-1.156-.575-1.792.358-2.831.244-.272 4.485-4.41 4.567-4.785.01-.047.02-.222-.077-.314s-.24-.06-.343-.036c-.147.036-2.477 1.688-6.992 4.957-.661.487-1.26.724-1.797.712-.592-.014-1.73-.359-2.577-.654-1.038-.362-1.862-.553-1.79-1.168.037-.32.448-.647 1.232-.982Z"
      clip-rule="evenodd" />
  </symbol>
  <symbol id="discord" viewBox="0 0 24 24">
    <path
      d="M10.24 10.39c-.57 0-1.02.5-1.02 1.11 0 .61.46 1.11 1.02 1.11.57 0 1.02-.5 1.02-1.11.01-.61-.45-1.11-1.02-1.11Zm3.65 0c-.57 0-1.02.5-1.02 1.11 0 .61.46 1.11 1.02 1.11.57 0 1.02-.5 1.02-1.11 0-.61-.45-1.11-1.02-1.11Z" />
    <path
      d="M18.75 2H5.35C4.22 2 3.3 2.92 3.3 4.06v13.52c0 1.14.92 2.06 2.05 2.06h11.34l-.53-1.85 1.28 1.19 1.21 1.12L20.8 22V4.06c0-1.14-.92-2.06-2.05-2.06Zm-3.86 13.06s-.36-.43-.66-.81c1.31-.37 1.81-1.19 1.81-1.19-.41.27-.8.46-1.15.59-.5.21-.98.35-1.45.43-.96.18-1.84.13-2.59-.01-.57-.11-1.06-.27-1.47-.43-.23-.09-.48-.2-.73-.34-.03-.02-.06-.03-.09-.05-.02-.01-.03-.02-.04-.03-.18-.1-.28-.17-.28-.17s.48.8 1.75 1.18c-.3.38-.67.83-.67.83-2.21-.07-3.05-1.52-3.05-1.52 0-3.22 1.44-5.83 1.44-5.83 1.44-1.08 2.81-1.05 2.81-1.05l.1.12c-1.8.52-2.63 1.31-2.63 1.31s.22-.12.59-.29c1.07-.47 1.92-.6 2.27-.63.06-.01.11-.02.17-.02a8.152 8.152 0 0 1 5.03.94s-.79-.75-2.49-1.27l.14-.16s1.37-.03 2.81 1.05c0 0 1.44 2.61 1.44 5.83 0 0-.85 1.45-3.06 1.52Z" />
  </symbol>
  <symbol id="web" viewBox="0 0 16 16" fill="none" stroke="currentColor" stroke-width="1.5">
    <rect x="0.75" y="0.75" width="14.5" height="14.5" rx="7.25" />
    <path
      d="M8.0001 0.799805C6.93343 1.86647 5.6001 3.1998 5.6001 7.9998C5.6001 12.7998 6.93343 14.1331 8.0001 15.1998" />
    <path
      d="M7.9999 0.799805C9.06657 1.86647 10.3999 3.1998 10.3999 7.9998C10.3999 12.7998 9.06657 14.1331 7.9999 15.1998" />
    <path d="M0.800049 8H15.2" />
  </symbol>
  <symbol id="email" viewBox="0 0 24 24">
    <path
      d="M20.659 9.708a.212.212 0 0 1 .341.165v7.19c0 .931-.756 1.687-1.688 1.687H4.688A1.688 1.688 0 0 1 3 17.062V9.878c0-.176.2-.275.341-.166.788.612 1.832 1.389 5.418 3.994.741.541 1.993 1.68 3.241 1.674 1.255.01 2.531-1.154 3.245-1.674 3.586-2.605 4.627-3.386 5.414-3.997ZM12 14.25c.816.014 1.99-1.027 2.58-1.456 4.666-3.385 5.02-3.68 6.097-4.524A.841.841 0 0 0 21 7.605v-.668c0-.931-.756-1.687-1.688-1.687H4.688C3.756 5.25 3 6.006 3 6.938v.667c0 .26.12.503.323.665 1.076.84 1.431 1.139 6.097 4.524.59.43 1.764 1.47 2.58 1.456Z" />
  </symbol>
</svg>